<?xml version="1.0" encoding="UTF-8" standalone="no"?><!-- Generator: Gravit.io --><svg xmlns="http://www.w3.org/2000/svg" xmlns:xlink="http://www.w3.org/1999/xlink" style="isolation:isolate" viewBox="0 0 485 485" width="485pt" height="485pt"><defs><clipPath id="_clipPath_QDfewelIPnttBkpcqEhTqeukOrS1pEcn"><rect width="485" height="485"/></clipPath></defs><g clip-path="url(#_clipPath_QDfewelIPnttBkpcqEhTqeukOrS1pEcn)"><path d=" M 272.932 323.285 C 283.042 298.497 311.485 263.81 340.497 245.915 L 404.733 352.195 L 338.938 400 L 272.932 323.285 L 272.932 323.285 Z " fill="rgb(0,195,165)"/><path d=" M 178.045 399.885 L 87.477 341.633 C 156.047 213.461 284.177 122.186 434.777 105.181 L 460 182.885 C 335.87 207.335 232.282 289.271 178.045 399.885 L 178.045 399.885 Z " fill="rgb(0,195,165)"/><path d=" M 197.81 136.08 L 209.257 0 L 290.613 0 L 300.949 123.062 C 254.269 139.072 226.816 151.862 195.363 171.197 C 172.143 185.437 151.026 202.099 132.133 221.209 L 40 182.313 L 65.114 104.833 L 197.81 136.08 Z " fill="rgb(0,195,165)"/></g></svg>